<svg width="60" height="60" viewBox="0 0 60 60" fill="none" xmlns="http://www.w3.org/2000/svg">
<circle cx="30" cy="30" r="30" fill="#1B1AFF"/>
<path d="M39.2119 37.0591L45.7143 40.3445C44.1295 42.4047 42.1135 44.0529 39.6663 45.289C37.2425 46.5251 34.6089 47.1431 31.7655 47.1431C28.5492 47.1431 25.6126 46.3733 22.9557 44.8336C20.3221 43.2939 18.2129 41.2337 16.6281 38.653C15.0665 36.0507 14.2858 33.1773 14.2858 30.0328C14.2858 27.6473 14.7402 25.4245 15.6492 23.3643C16.5581 21.2825 17.805 19.4608 19.3899 17.8994C20.998 16.3164 22.8625 15.0802 24.9834 14.1911C27.1042 13.302 29.365 12.8574 31.7655 12.8574C34.6089 12.8574 37.2425 13.4755 39.6663 14.7116C42.1135 15.9477 44.1295 17.6067 45.7143 19.6885L39.2119 22.974C38.233 21.8897 37.091 21.0656 35.7858 20.5018C34.4807 19.9162 33.1406 19.6235 31.7655 19.6235C29.8544 19.6235 28.1181 20.1114 26.5565 21.0873C25.0183 22.0415 23.7947 23.3101 22.8858 24.8932C22.0002 26.4546 21.5573 28.1678 21.5573 30.0328C21.5573 31.8761 22.0118 33.5893 22.9208 35.1724C23.8297 36.7338 25.0533 37.9916 26.5915 38.9458C28.153 39.9 29.8777 40.3771 31.7655 40.3771C33.2105 40.3771 34.5856 40.0735 35.8907 39.4663C37.1959 38.859 38.3029 38.0567 39.2119 37.0591Z" fill="white"/>
</svg>
